<svg preserveAspectRatio="none" overflow="visible" style="display: block;" width="42" height="42" viewBox="0 0 42 42" fill="none" xmlns="http://www.w3.org/2000/svg">
<g id="coins-hand">
<path id="Icon" d="M23.6766 14.6158C22.6749 15.3299 21.449 15.75 20.125 15.75C16.7423 15.75 14 13.0077 14 9.625C14 6.24226 16.7423 3.5 20.125 3.5C22.3177 3.5 24.2413 4.65223 25.3234 6.38425M10.5 35.1525H15.068C15.6636 35.1525 16.2555 35.2234 16.8329 35.3651L21.6596 36.538C22.7069 36.7932 23.7979 36.818 24.8561 36.6125L30.1927 35.5742C31.6024 35.2996 32.8993 34.6245 33.9156 33.6359L37.6913 29.963C38.7696 28.9159 38.7696 27.2168 37.6913 26.1679C36.7205 25.2235 35.1833 25.1172 34.085 25.918L29.6845 29.1285C29.0543 29.5892 28.2875 29.8372 27.4989 29.8372H23.2496L25.9544 29.8371C27.4789 29.8371 28.7137 28.6358 28.7137 27.1529V26.616C28.7137 25.3846 27.8522 24.3109 26.6246 24.0133L22.45 22.998C21.7707 22.8333 21.0749 22.75 20.3755 22.75C18.6871 22.75 15.6308 24.1479 15.6308 24.1479L10.5 26.2935M35 11.375C35 14.7577 32.2577 17.5 28.875 17.5C25.4923 17.5 22.75 14.7577 22.75 11.375C22.75 7.99226 25.4923 5.25 28.875 5.25C32.2577 5.25 35 7.99226 35 11.375ZM3.5 25.55L3.5 35.7C3.5 36.6801 3.5 37.1701 3.69074 37.5445C3.85852 37.8738 4.12623 38.1415 4.45552 38.3093C4.82986 38.5 5.31991 38.5 6.3 38.5H7.7C8.68009 38.5 9.17014 38.5 9.54448 38.3093C9.87377 38.1415 10.1415 37.8738 10.3093 37.5445C10.5 37.1701 10.5 36.6801 10.5 35.7V25.55C10.5 24.5699 10.5 24.0799 10.3093 23.7055C10.1415 23.3762 9.87377 23.1085 9.54448 22.9407C9.17014 22.75 8.68009 22.75 7.7 22.75L6.3 22.75C5.31991 22.75 4.82986 22.75 4.45552 22.9407C4.12623 23.1085 3.85852 23.3762 3.69074 23.7055C3.5 24.0799 3.5 24.5699 3.5 25.55Z" stroke="#44464A" stroke-width="1.5" stroke-linecap="round" stroke-linejoin="round"/>
</g>
</svg>
